<svg xmlns="http://www.w3.org/2000/svg" xmlns:xlink="http://www.w3.org/1999/xlink" version="1.1" viewBox="0 0 950 266"><defs><filter id="sh"><feGaussianBlur in="SourceAlpha" stdDeviation="4"/><feOffset dx="2" dy="3"/><feBlend in="SourceGraphic"/></filter></defs><rect width="106" height="60" x="137" y="148" filter="url(#sh)" style="fill:#cfe2f3;stroke-width:3;stroke:#000"/><line x1="85" x2="137" y1="178" y2="178" style="stroke:#000;stroke-width:1;stroke-dasharray:5,5"/><polygon points="137 178 128 175 128 181"/><rect width="160" height="90" x="110" y="40" filter="url(#sh)" style="fill:#cfe2f3;stroke-width:3;stroke:#674ea7"/><line x1="85" x2="110" y1="85" y2="85" style="stroke:#000;stroke-width:1;stroke-dasharray:5,5"/><polygon points="110 85 101 82 101 88"/><line x1="190" x2="190" y1="148" y2="130" style="stroke:#000;stroke-width:1"/><polygon points="190 132 187 141 193 141"/><rect width="106" height="60" x="337" y="148" filter="url(#sh)" style="fill:#cfe2f3;stroke-width:3;stroke:#000"/><line x1="243" x2="337" y1="178" y2="178" style="stroke:#000;stroke-width:1"/><polygon points="337 178 328 175 328 181"/><rect width="160" height="90" x="310" y="40" filter="url(#sh)" style="fill:#cfe2f3;stroke-width:3;stroke:#674ea7"/><line x1="270" x2="310" y1="85" y2="85" style="stroke:#000;stroke-width:1"/><polygon points="310 85 301 82 301 88"/><line x1="390" x2="390" y1="148" y2="130" style="stroke:#000;stroke-width:1"/><polygon points="390 132 387 141 393 141"/><rect width="106" height="60" x="537" y="148" filter="url(#sh)" style="fill:#cfe2f3;stroke-width:3;stroke:#000"/><line x1="443" x2="537" y1="178" y2="178" style="stroke:#000;stroke-width:1"/><polygon points="537 178 528 175 528 181"/><rect width="160" height="90" x="510" y="40" filter="url(#sh)" style="fill:#cfe2f3;stroke-width:3;stroke:#674ea7"/><line x1="590" x2="590" y1="148" y2="130" style="stroke:#000;stroke-width:1"/><polygon points="590 132 587 141 593 141"/><rect width="106" height="60" x="737" y="148" filter="url(#sh)" style="fill:#cfe2f3;stroke-width:3;stroke:#000"/><line x1="643" x2="737" y1="178" y2="178" style="stroke:#000;stroke-width:1"/><polygon points="737 178 728 175 728 181"/><rect width="160" height="90" x="710" y="40" filter="url(#sh)" style="fill:#cfe2f3;stroke-width:3;stroke:#674ea7"/><line x1="670" x2="710" y1="85" y2="85" style="stroke:#000;stroke-width:1"/><polygon points="710 85 701 82 701 88"/><line x1="790" x2="790" y1="148" y2="130" style="stroke:#000;stroke-width:1"/><polygon points="790 132 787 141 793 141"/><line x1="843" x2="895" y1="178" y2="178" style="stroke:#000;stroke-width:1;stroke-dasharray:5,5"/><polygon points="895 178 886 175 886 181"/><line x1="870" x2="895" y1="85" y2="85" style="stroke:#000;stroke-width:1;stroke-dasharray:5,5"/><polygon points="895 85 886 82 886 88"/><line x1="90" x2="895" y1="231" y2="231" style="stroke:#000;stroke-width:1"/><polygon points="895 231 886 228 886 234"/><line x1="90" x2="90" y1="231" y2="15" style="stroke:#000;stroke-width:1"/><polygon points="90 17 87 26 93 26"/><text x="860" y="263" font-family="Arial" font-size="30">Time<tspan x="185" y="263">50</tspan><tspan x="385" y="263">51</tspan><tspan x="585" y="263">52</tspan><tspan x="785" y="263">53</tspan><tspan x="2" y="30">Layer</tspan><tspan x="2" y="193">S0</tspan><tspan x="2" y="100">S1</tspan><tspan x="160" y="189">F101</tspan><tspan x="160" y="96">F102</tspan><tspan x="360" y="189">F103</tspan><tspan x="360" y="96">F104</tspan><tspan x="560" y="189">F105</tspan><tspan x="560" y="96">F106</tspan><tspan x="760" y="189">F107</tspan><tspan x="760" y="96">F108</tspan></text></svg>